<?xml version="1.0" standalone="no"?>
<!DOCTYPE svg PUBLIC "-//W3C//DTD SVG 20010904//EN"
 "http://www.w3.org/TR/2001/REC-SVG-20010904/DTD/svg10.dtd">
<svg version="1.0" xmlns="http://www.w3.org/2000/svg"
 width="574.000000pt" height="574.000000pt" viewBox="0 0 574.000000 574.000000"
 preserveAspectRatio="xMidYMid meet">
<metadata>
Created by potrace 1.14, written by Peter Selinger 2001-2017
</metadata>
<g transform="translate(0.000000,574.000000) scale(0.100000,-0.100000)"
fill="#000000" stroke="none">
<path d="M2281 3622 c-13 -2 -37 -12 -53 -22 l-30 -18 23 -15 c13 -9 118 -72
234 -141 l209 -125 49 26 c38 21 45 29 35 38 -13 13 -387 235 -423 252 -11 5
-31 7 -44 5z"/>
<path d="M3348 3609 c-15 -4 -48 -21 -73 -38 -25 -17 -48 -31 -49 -31 -2 0
-219 -129 -482 -287 -472 -284 -480 -288 -534 -288 -53 0 -64 5 -303 149 -245
147 -248 148 -273 131 -18 -12 -24 -23 -22 -43 3 -24 31 -44 221 -158 120 -72
251 -149 290 -172 125 -70 190 -67 329 15 51 31 108 64 126 74 17 11 47 27 65
38 17 10 140 83 272 163 132 79 319 191 415 248 96 56 181 109 188 115 11 10
3 19 -45 46 -72 42 -91 48 -125 38z"/>
<path d="M1956 3432 c-10 -2 -32 -12 -48 -22 l-29 -17 237 -141 237 -141 26
18 c14 10 34 21 44 24 9 4 17 10 17 14 0 10 -414 256 -443 264 -12 3 -31 3
-41 1z"/>
<path d="M3295 3205 c-214 -129 -405 -237 -424 -241 -18 -4 -49 -2 -69 4 -32
10 -41 8 -85 -17 l-49 -28 44 -25 c122 -72 121 -71 193 -72 60 0 79 4 130 31
69 37 118 66 125 73 5 6 190 117 227 137 39 20 448 265 456 273 7 6 -140 101
-154 100 -2 -1 -179 -106 -394 -235z"/>
<path d="M3784 3119 c-120 -73 -233 -138 -251 -145 -39 -17 -84 -18 -116 -3
-20 9 -31 6 -70 -18 l-47 -29 67 -39 c37 -22 76 -44 87 -48 35 -15 119 -17
156 -5 53 17 509 291 513 308 6 31 -6 47 -57 78 -28 18 -54 32 -57 32 -3 0
-104 -59 -225 -131z"/>
<path d="M4190 2415 c0 -317 0 -325 20 -325 36 0 48 37 48 157 1 151 23 203
104 244 79 41 179 10 225 -68 24 -42 26 -54 28 -174 1 -115 3 -130 20 -144 25
-18 45 -19 46 -2 1 6 1 73 1 148 1 152 -12 196 -71 255 -50 51 -97 69 -177 69
-62 0 -77 -4 -122 -32 l-52 -32 -1 27 c0 15 0 55 1 89 1 55 -2 66 -24 88 -14
14 -30 25 -36 25 -7 0 -10 -106 -10 -325z"/>
<path d="M656 2565 c-54 -19 -107 -64 -136 -116 -20 -36 -25 -57 -25 -114 1
-82 23 -134 80 -183 64 -57 116 -68 278 -63 24 1 21 23 -5 45 -15 14 -40 20
-82 21 -103 3 -156 31 -187 99 -82 180 143 342 282 204 45 -46 51 -70 54 -211
1 -112 4 -129 21 -142 26 -20 44 -19 45 3 1 9 1 76 1 148 -1 114 -4 138 -23
178 -54 116 -186 173 -303 131z"/>
<path d="M1160 2562 c-71 -35 -95 -138 -48 -205 34 -47 66 -57 187 -57 62 0
121 -5 135 -12 43 -19 51 -76 15 -113 -17 -18 -34 -19 -190 -20 -167 -1 -172
-1 -190 -24 -11 -13 -19 -27 -19 -32 0 -11 -1 -11 217 -10 138 0 178 3 203 16
95 49 93 198 -4 245 -35 17 -62 20 -158 20 -115 0 -117 0 -138 27 -25 32 -20
69 12 96 16 13 39 17 110 17 81 0 91 2 113 25 14 13 25 29 25 35 0 6 -42 10
-117 10 -92 0 -126 -4 -153 -18z"/>
<path d="M1725 2566 c-74 -33 -104 -135 -60 -203 34 -51 70 -63 196 -63 102 0
119 -2 143 -21 33 -26 36 -77 6 -104 -18 -16 -41 -19 -190 -20 -151 -1 -171
-3 -190 -20 -11 -10 -19 -26 -18 -34 3 -13 31 -15 195 -14 213 2 237 8 274 66
28 45 22 127 -12 163 -40 44 -78 54 -202 54 -124 0 -138 6 -152 62 -5 21 -1
33 19 52 23 24 32 26 114 26 94 0 132 15 138 53 2 15 -11 17 -114 17 -75 -1
-128 -6 -147 -14z"/>
<path d="M2188 2556 c-6 -29 -1 -39 30 -55 13 -7 27 -22 32 -34 7 -16 9 -9 5
28 -3 36 -10 55 -26 68 -28 23 -36 22 -41 -7z"/>
<path d="M2450 2561 c-93 -49 -97 -187 -7 -241 27 -17 51 -20 144 -20 63 0
123 -5 137 -12 43 -19 51 -76 15 -113 -17 -17 -34 -20 -176 -21 -87 -1 -166
-2 -175 -3 -19 -1 -55 -48 -45 -58 4 -3 92 -5 196 -5 208 1 231 6 270 61 29
40 28 114 -1 157 -36 53 -73 64 -207 64 -105 0 -120 2 -136 20 -26 29 -24 79
4 102 19 14 41 18 113 18 81 0 91 2 113 25 14 13 25 29 25 35 0 6 -42 10 -118
10 -95 0 -124 -3 -152 -19z"/>
<path d="M3051 2560 c-54 -21 -99 -65 -127 -125 -22 -46 -24 -63 -24 -198 0
-148 0 -148 22 -145 36 5 47 43 47 161 0 130 18 180 79 224 67 49 166 40 221
-18 46 -49 54 -78 56 -199 1 -63 5 -125 9 -137 7 -22 42 -40 54 -29 3 4 5 71
4 149 -1 172 -12 207 -83 271 -73 66 -166 82 -258 46z"/>
<path d="M3484 2546 c0 -28 5 -36 22 -40 13 -4 26 -16 30 -29 l8 -22 6 25 c8
32 -7 78 -30 90 -30 16 -36 12 -36 -24z"/>
<path d="M3796 2565 c-56 -20 -107 -65 -136 -121 -23 -44 -25 -61 -28 -201 -3
-148 -3 -153 17 -153 39 0 51 36 51 158 0 152 21 202 102 243 88 45 200 2 240
-91 6 -14 12 -83 14 -153 2 -111 5 -130 21 -142 10 -8 25 -15 33 -15 13 0 16
20 15 138 -2 164 -8 194 -49 249 -67 89 -179 124 -280 88z"/>
<path d="M4930 2571 c-116 -36 -188 -141 -177 -259 12 -133 109 -222 242 -222
163 0 270 133 240 299 -9 51 -30 85 -79 128 -64 56 -150 77 -226 54z m147 -82
c140 -68 119 -278 -32 -326 -105 -33 -225 54 -225 164 0 139 132 223 257 162z"/>
<path d="M2189 2417 c0 -18 -1 -90 -1 -160 0 -108 2 -131 17 -147 10 -11 25
-20 35 -20 14 0 16 18 15 159 -1 165 -5 184 -45 194 -17 4 -20 0 -21 -26z"/>
<path d="M3487 2443 c-2 -5 -3 -79 -3 -166 1 -145 3 -160 21 -173 28 -20 45
-17 46 9 5 133 -1 290 -12 303 -17 20 -47 36 -52 27z"/>
<path d="M3110 2250 c0 -107 2 -122 20 -140 11 -11 27 -20 35 -20 12 0 15 20
15 120 0 110 -2 121 -22 140 -43 40 -48 29 -48 -100z"/>
</g>
</svg>
